<svg width="42" height="42" viewBox="0 0 42 42" fill="none" xmlns="http://www.w3.org/2000/svg">
<path d="M21 35.2948C28.8948 35.2948 35.2949 28.8948 35.2949 21C35.2949 13.1051 28.8948 6.70508 21 6.70508C13.1052 6.70508 6.70512 13.1051 6.70512 21C6.70512 28.8948 13.1052 35.2948 21 35.2948Z" stroke="#2F6F78" stroke-width="2" stroke-linecap="round" stroke-linejoin="round"/>
<path d="M21 35.2948C24.3103 35.2948 26.9937 28.8948 26.9937 21C26.9937 13.1051 24.3103 6.70508 21 6.70508C17.6897 6.70508 15.0062 13.1051 15.0062 21C15.0062 28.8948 17.6897 35.2948 21 35.2948Z" stroke="#2F6F78" stroke-width="2" stroke-linecap="round" stroke-linejoin="round"/>
<path d="M23.9969 26.1908C30.834 22.2434 35.0349 16.7194 33.3797 13.8527C31.7246 10.9859 24.8403 11.8619 18.0031 15.8093C11.166 19.7568 6.96515 25.2808 8.62028 28.1475C10.2754 31.0143 17.1597 30.1383 23.9969 26.1908Z" stroke="#2F6F78" stroke-width="2" stroke-linecap="round" stroke-linejoin="round"/>
<path d="M33.3797 28.1473C35.0349 25.2806 30.834 19.7566 23.9969 15.8092C17.1597 11.8617 10.2754 10.9857 8.62028 13.8525C6.96515 16.7192 11.166 22.2432 18.0031 26.1907C24.8403 30.1381 31.7246 31.0141 33.3797 28.1473Z" stroke="#2F6F78" stroke-width="2" stroke-linecap="round" stroke-linejoin="round"/>
<path d="M35.2957 21V38.6225" stroke="#2F6F78" stroke-width="2" stroke-linecap="round" stroke-linejoin="round"/>
<path d="M21 23.5095C22.386 23.5095 23.5095 22.3859 23.5095 21C23.5095 19.614 22.386 18.4905 21 18.4905C19.614 18.4905 18.4905 19.614 18.4905 21C18.4905 22.3859 19.614 23.5095 21 23.5095Z" stroke="#2F6F78" stroke-width="2" stroke-linecap="round" stroke-linejoin="round"/>
<path d="M32.5351 35.8618C29.1769 38.4685 25.0347 39.8609 20.7838 39.812C16.5329 39.7632 12.4238 38.2759 9.12638 35.5928C5.82891 32.9096 3.53745 29.1887 2.62547 25.0365C1.71349 20.8842 2.23477 16.5455 4.10434 12.7275C5.9739 8.90946 9.08153 5.83721 12.9207 4.01148C16.7599 2.18574 21.1043 1.71418 25.2458 2.67363C29.3873 3.63309 33.0818 5.96699 35.727 9.29496C38.3722 12.6229 39.8123 16.7487 39.8125 20.9999V37.1349" stroke="#2F6F78" stroke-width="2" stroke-linecap="round" stroke-linejoin="round"/>
</svg>
