<svg width="17" height="18" viewBox="0 0 17 18" fill="none" xmlns="http://www.w3.org/2000/svg">
<path fill-rule="evenodd" clip-rule="evenodd" d="M9.65357 11.6477C9.3751 12.7491 9.36761 13.6677 9.63111 14.4036C10.1153 15.7562 11.8168 16.1454 11.897 16.5C11.9771 16.8545 9.63111 17.0358 8.30511 17.0358C6.97941 17.0358 5.35318 16.768 5.35318 16.5C5.35318 16.2322 6.89654 15.8767 7.36556 14.3785C7.63877 13.5051 7.60882 12.5021 7.2757 11.3696C7.19268 11.3972 7.10617 11.411 7.01918 11.4108C6.65763 11.4108 6.35648 11.1761 6.29152 10.8663C6.04198 11.0399 5.72931 11.1427 5.39022 11.1427C4.65861 11.1427 4.05116 10.6631 3.93095 10.0325C3.82681 10.0586 3.72013 10.0717 3.61311 10.0714C2.95891 10.0714 2.42857 9.59182 2.42857 9.00007C2.42857 8.60053 2.67022 8.25211 3.02873 8.06793C2.84447 7.94611 2.72486 7.74907 2.72486 7.52696C2.72526 7.44939 2.73892 7.37589 2.76584 7.30646C2.56275 7.211 2.42857 7.04578 2.42857 6.85711C2.42857 6.62343 2.63561 6.42478 2.924 6.3515C2.62195 6.15543 2.42857 5.85457 2.42857 5.51803C2.42857 4.9835 2.9152 4.54089 3.55148 4.45957C3.40148 4.26734 3.3187 4.0262 3.31713 3.77686C3.31713 3.11118 3.91365 2.5715 4.64981 2.5715C4.72388 2.5715 4.79653 2.57686 4.86777 2.58757C5.04536 2.11089 5.54382 1.76793 6.13063 1.76793C6.29364 1.76793 6.44968 1.79428 6.59418 1.84282C6.69436 1.34332 7.17825 0.964355 7.75929 0.964355C8.35368 0.964355 8.84607 1.36036 8.93107 1.87625C9.14813 1.64611 9.47143 1.50018 9.83268 1.50018C10.4869 1.50018 11.0172 1.97975 11.0172 2.5715C11.0172 2.77078 10.9568 2.95753 10.8521 3.11761C10.9059 3.11075 10.961 3.10732 11.0172 3.10732C11.6262 3.10732 12.1283 3.52293 12.1945 4.05811C12.3808 3.96029 12.5861 3.90988 12.794 3.91089C13.4485 3.91089 13.9789 4.39046 13.9789 4.98221C13.9789 5.38561 13.7324 5.73693 13.3681 5.91982C13.7324 6.10239 13.9789 6.45371 13.9789 6.85711C13.9789 7.20746 13.7928 7.51893 13.5053 7.71436C13.6164 7.84871 13.6826 8.01553 13.6826 8.1965C13.6824 8.26614 13.6731 8.333 13.6546 8.39707C14.2011 8.67125 14.5711 9.19839 14.5711 9.80364C14.5711 10.6911 13.7758 11.4108 12.794 11.4108C12.5492 11.4114 12.3063 11.3652 12.077 11.2745C11.808 11.5239 11.4325 11.6785 11.0172 11.6785C10.6995 11.6814 10.3879 11.5865 10.1202 11.4053C9.99266 11.5201 9.83268 11.6049 9.65357 11.6477Z" fill="black"/>
</svg>
