<svg width="46" height="46" viewBox="0 0 46 46" fill="none" xmlns="http://www.w3.org/2000/svg">
<path d="M23 15.3333V3.83331H11.5C10.4833 3.83331 9.50831 4.23718 8.78942 4.95607C8.07053 5.67496 7.66667 6.64998 7.66667 7.66665V22.0378C10.3095 20.9354 13.2514 20.7769 15.9973 21.5893C18.7432 22.4016 21.1254 24.135 22.7431 26.4978C24.3607 28.8607 25.1151 31.7086 24.8791 34.5624C24.6431 37.4162 23.4313 40.1016 21.4475 42.1666H34.5C35.5167 42.1666 36.4917 41.7628 37.2106 41.0439C37.9295 40.325 38.3333 39.35 38.3333 38.3333V19.1666H26.8333C25.8167 19.1666 24.8416 18.7628 24.1228 18.0439C23.4039 17.325 23 16.35 23 15.3333ZM25.875 15.3333V4.79165L37.375 16.2916H26.8333C26.5792 16.2916 26.3354 16.1907 26.1557 16.011C25.976 15.8312 25.875 15.5875 25.875 15.3333ZM9.59675 32.5833C9.67342 29.8712 10.0721 27.4677 10.6567 25.7121C10.9844 24.7288 11.3543 24.0005 11.7185 23.5386C12.0922 23.0651 12.3491 23 12.4583 23C12.5676 23 12.8244 23.0651 13.1982 23.5386C13.5623 24.0005 13.9322 24.7269 14.26 25.7121C14.8446 27.4677 15.2432 29.8712 15.3199 32.5833H9.59675ZM8.83775 25.1083C9.02706 24.5237 9.26293 23.9552 9.54308 23.4082C7.50235 23.9966 5.68667 25.1871 4.33352 26.8241C2.98036 28.4611 2.15272 30.4683 1.95883 32.5833H7.68008C7.75675 29.7083 8.17842 27.0901 8.83775 25.1083ZM16.0789 25.1083C15.8896 24.5237 15.6537 23.9552 15.3736 23.4082C17.415 23.9954 19.2314 25.1856 20.5847 26.8228C21.9381 28.46 22.7652 30.4679 22.9578 32.5833H17.2366C17.1599 29.7083 16.7382 27.0901 16.0789 25.1083ZM17.2366 34.5H22.9578C22.7652 36.6154 21.9381 38.6233 20.5847 40.2605C19.2314 41.8977 17.415 43.0879 15.3736 43.6751C15.6536 43.1287 15.8895 42.5609 16.0789 41.9769C16.7402 39.9931 17.1599 37.3769 17.2366 34.5ZM13.1982 43.5447C12.8244 44.0181 12.5676 44.0833 12.4583 44.0833C12.3491 44.0833 12.0922 44.0181 11.7185 43.5447C11.3543 43.0828 10.9844 42.3564 10.6567 41.3693C10.0721 39.6156 9.67342 37.2101 9.59675 34.5H15.3199C15.2432 37.2121 14.8446 39.6156 14.26 41.3693C13.9322 42.3545 13.5623 43.0828 13.1982 43.5447ZM1.95883 34.5C2.15272 36.615 2.98036 38.6222 4.33352 40.2592C5.68667 41.8962 7.50235 43.0867 9.54308 43.6751C9.26302 43.1287 9.02715 42.5609 8.83775 41.9769C8.1765 39.9931 7.75675 37.3769 7.68008 34.5H1.95883Z" fill="url(#paint0_linear_37_73)"/>
<defs>
<linearGradient id="paint0_linear_37_73" x1="1.95883" y1="3.83331" x2="44.3628" y2="11.7377" gradientUnits="userSpaceOnUse">
<stop stop-color="#BCDCEA"/>
<stop offset="1" stop-color="#AFB0C8"/>
</linearGradient>
</defs>
</svg>
