<svg width="48" height="48" viewBox="0 0 48 48" fill="none" xmlns="http://www.w3.org/2000/svg">
<path d="M26.4434 1.96283C24.6738 1.96283 23.2676 3.42158 23.2676 5.19131C23.2676 6.96103 24.6739 8.36709 26.4434 8.36709C28.2129 8.36709 29.6192 6.96103 29.6192 5.19131C29.6192 3.42177 28.2129 1.96283 26.4434 1.96283ZM12.1786 7.69622C10.4091 7.69622 9.00281 9.15778 9.00281 10.9278C9.00281 12.6974 10.4091 14.1035 12.1787 14.1035C13.9483 14.1035 15.3545 12.6974 15.3545 10.9277C15.3545 9.15806 13.948 7.69622 12.1786 7.69622ZM38.8299 9.82022C37.0604 9.82022 35.6541 11.2818 35.6541 13.0518C35.6541 14.8214 37.0604 16.2275 38.8299 16.2275C40.5996 16.2275 42.0057 14.8214 42.0057 13.0517C42.0057 11.282 40.5995 9.82022 38.8299 9.82022ZM23.619 15.2168C23.3152 15.2165 23.0087 15.2561 22.7079 15.3368C20.3026 15.9813 19.0404 19.0638 19.8865 22.2216C20.2148 23.4471 20.8131 24.5011 21.5623 25.2979C19.76 25.7228 18.362 26.5604 17.7654 27.5948L17.7274 27.586L13.8279 33.6271L9.07593 31.5704C6.32193 30.0591 3.30328 33.8204 6.20493 35.4786L15.0613 39.6094L18.6266 34.916C18.375 39 18.6266 41.625 19.5 45.8144H29.6192C29.9503 41.625 29.9503 39.6094 29.9503 35.0684L33.4012 39.6094L42.2578 35.4785C43.3486 34.8551 43.6016 33.9345 43.3476 33.1085C42.5804 33.6016 41.6681 33.8907 40.6904 33.8907C39.3569 33.8907 38.1481 33.3544 37.2599 32.4902L34.6349 33.627L30.7355 27.586H30.7326C30.2189 26.7031 29.1177 25.9662 27.6827 25.5058C28.7683 24.1725 29.1756 22.0465 28.5967 19.8867C27.8565 17.1236 25.7464 15.2182 23.619 15.2168ZM8.23228 20.9383C6.46274 20.9383 5.05659 22.3971 5.05659 24.1669C5.05659 25.9369 6.46284 27.3428 8.23228 27.3428C10.0019 27.3428 11.4082 25.9368 11.4082 24.167C11.4082 22.3976 10.0019 20.9383 8.23228 20.9383ZM40.6904 25.7314C38.9208 25.7314 37.5145 27.193 37.5145 28.9627C37.5145 30.7325 38.9208 32.1385 40.6903 32.1385C42.4599 32.1385 43.8662 30.7325 43.8662 28.9627C43.8662 27.1932 42.4599 25.7314 40.6904 25.7314Z" fill="url(#paint0_linear_37_68)"/>
<defs>
<linearGradient id="paint0_linear_37_68" x1="5.02332" y1="1.96283" x2="50.3646" y2="10.247" gradientUnits="userSpaceOnUse">
<stop stop-color="#BCDCEA"/>
<stop offset="1" stop-color="#AFB0C8"/>
</linearGradient>
</defs>
</svg>
