<svg width="34" height="34" viewBox="0 0 34 34" fill="none" xmlns="http://www.w3.org/2000/svg">
<path d="M31.6648 5C32.0896 5.00047 32.4982 5.16313 32.8071 5.45475C33.116 5.74636 33.3019 6.14492 33.3268 6.56899C33.3517 6.99306 33.2137 7.41063 32.941 7.73639C32.6684 8.06214 32.2816 8.27149 31.8598 8.32167L31.6648 8.33333V25C32.0896 25.0005 32.4982 25.1631 32.8071 25.4547C33.116 25.7464 33.3019 26.1449 33.3268 26.569C33.3517 26.9931 33.2137 27.4106 32.941 27.7364C32.6684 28.0621 32.2816 28.2715 31.8598 28.3217L31.6648 28.3333H1.66482C1.24002 28.3329 0.831433 28.1702 0.52254 27.8786C0.213646 27.587 0.0277619 27.1884 0.00286673 26.7643C-0.0220285 26.3403 0.115945 25.9227 0.388595 25.5969C0.661245 25.2712 1.04799 25.0618 1.46982 25.0117L1.66482 25V8.33333C1.24002 8.33286 0.831433 8.1702 0.52254 7.87859C0.213646 7.58697 0.0277619 7.18841 0.00286673 6.76434C-0.0220285 6.34027 0.115945 5.9227 0.388595 5.59695C0.661245 5.27119 1.04799 5.06184 1.46982 5.01167L1.66482 5H31.6648ZM28.3315 8.33333H4.99815V25H8.33149V13.3333C8.33149 12.8913 8.50708 12.4674 8.81964 12.1548C9.1322 11.8423 9.55613 11.6667 9.99815 11.6667C10.4402 11.6667 10.8641 11.8423 11.1767 12.1548C11.4892 12.4674 11.6648 12.8913 11.6648 13.3333V25H14.9982V13.3333C14.9982 12.8913 15.1737 12.4674 15.4863 12.1548C15.7989 11.8423 16.2228 11.6667 16.6648 11.6667C17.1068 11.6667 17.5308 11.8423 17.8433 12.1548C18.1559 12.4674 18.3315 12.8913 18.3315 13.3333V25H21.6648V13.3333C21.6648 12.8913 21.8404 12.4674 22.153 12.1548C22.4655 11.8423 22.8895 11.6667 23.3315 11.6667C23.7735 11.6667 24.1974 11.8423 24.51 12.1548C24.8226 12.4674 24.9982 12.8913 24.9982 13.3333V25H28.3315V8.33333ZM26.6648 0C27.1068 0 27.5308 0.175595 27.8433 0.488156C28.1559 0.800716 28.3315 1.22464 28.3315 1.66667C28.3315 2.10869 28.1559 2.53262 27.8433 2.84518C27.5308 3.15774 27.1068 3.33333 26.6648 3.33333H6.66482C6.22279 3.33333 5.79887 3.15774 5.48631 2.84518C5.17375 2.53262 4.99815 2.10869 4.99815 1.66667C4.99815 1.22464 5.17375 0.800716 5.48631 0.488156C5.79887 0.175595 6.22279 0 6.66482 0H26.6648Z" fill="url(#paint0_linear_39_176)"/>
<defs>
<linearGradient id="paint0_linear_39_176" x1="0" y1="0" x2="37.9691" y2="9.21283" gradientUnits="userSpaceOnUse">
<stop stop-color="#BCDCEA"/>
<stop offset="1" stop-color="#AFB0C8"/>
</linearGradient>
</defs>
</svg>
