<svg width="216" height="99" viewBox="0 0 216 99" fill="none" xmlns="http://www.w3.org/2000/svg">
<path d="M7.8081 40.9569L1.94455 38.1864L3.92898 30.3892L8.31668 23.5726L14.4894 25.5719L10.2014 20.8973L15.1575 14.4139L21.8886 9.69179L26.8347 13.8332L24.7406 7.89243L31.8906 3.75105L40.0477 1.84696L42.8997 7.45449L43.3684 1.21861L51.6252 0L59.9419 1.21861L60.3507 7.45449L63.2626 1.84696L71.4197 3.75105L78.5597 7.89243L76.4755 13.8332L81.3718 9.69179L88.1528 14.4139L93.0989 20.8973L88.8209 25.5719L94.9936 23.5726L99.3314 30.3892L101.316 38.1864L95.4523 40.9569L101.984 41.3472L103.26 49.2396L101.984 57.1797L95.4523 57.57L101.316 60.3404L99.3314 68.09L94.9936 74.9543L88.8209 72.955L93.0989 77.639L88.1528 84.1129L81.3718 88.8351L76.4755 84.6937L78.5597 90.5868L71.4197 94.7758L63.2626 96.6799L60.3507 91.0819L59.9419 97.3082L51.6252 98.5268L43.3684 97.3082L42.8997 91.0819L40.0477 96.6799L31.8906 94.7758L24.7406 90.5868L26.8347 84.6937L21.8886 88.8351L15.1575 84.1129L10.2014 77.639L14.4894 72.955L8.31668 74.9543L3.92898 68.09L1.94455 60.3404L7.8081 57.57L1.27642 57.1797L0 49.2396L1.27642 41.3472L7.8081 40.9569Z" fill="white"/>
<path d="M7.8081 40.9378L1.99441 38.234L3.98881 30.4368L8.37651 23.6202L14.5492 25.6194L10.2014 20.9449L15.1874 14.4615L21.9684 9.70131L26.8647 13.7951L24.7705 7.90195L31.9105 3.75105L40.0676 1.84696L42.9795 7.45449L43.3883 1.21861L51.6252 0L59.9419 1.21861L60.3507 7.45449L63.2626 1.84696L71.4197 3.75105L78.5597 7.94003L76.4755 13.8332L81.3718 9.73939L88.1528 14.4996L93.1388 20.983L88.8608 25.6575L95.0335 23.6582L99.3813 30.4653L101.376 38.2626L95.5022 40.9378L102.034 41.3757L103.36 49.2682L102.034 57.1606L95.5022 57.5985L101.366 60.3214L99.3713 68.1186L94.9836 74.9828L88.8109 72.9835L93.0889 77.6676L88.1029 84.1415L81.3219 88.9017L76.4257 84.8174L78.5098 90.7106L71.3698 94.8995L63.2127 96.8036L60.3009 91.2056L59.892 97.4415L51.5754 98.6601L43.3185 97.4415L42.9097 91.2056L39.9978 96.8036L31.8407 94.8995L24.6908 90.7106L26.7849 84.8174L21.9385 88.8826L15.1575 84.1224L10.1715 77.5914L14.4594 72.9169L8.28676 74.9162L3.89907 68.052L1.99441 60.2928L7.85796 57.5224L1.27642 57.1225L0 49.2396L1.27642 41.3472L7.8081 40.9378ZM36.0688 39.8239L28.9189 40.2809L33.6058 45.3934L37.3852 43.6416L36.0688 39.8239ZM42.2415 27.6092L41.7828 34.4354L45.7716 35.7492L47.6563 32.1409L42.2415 27.6092ZM59.7425 8.61598L59.2837 1.79936L51.6252 0.68547L44.0265 1.79936L43.5678 8.61598L51.6751 24.3056L59.7425 8.61598ZM61.5274 34.3878L61.0687 27.6092L55.7038 32.0933L57.5985 35.7016L61.5274 34.3878ZM74.3315 40.2809L67.1916 39.843L65.8055 43.6511L69.5848 45.4029L74.3315 40.2809ZM94.2257 56.9797L101.366 56.5418L102.542 49.2872L101.366 42.0327L94.2257 41.5947L77.7819 49.3348L94.2257 56.9797ZM67.2414 58.6839L74.3814 58.2459L69.6846 53.1335L65.9151 54.9423L67.2414 58.6839ZM61.0687 70.9081L61.5274 64.0915L57.5386 62.7776L55.6439 66.3859L61.0687 70.9081ZM43.518 89.8632L43.9767 96.6799L51.5754 97.7938L59.2239 96.6799L59.6826 89.8632L51.5754 74.2593L43.518 89.8632ZM41.7828 64.1581L42.2415 70.9842L47.5965 66.5001L45.7118 62.8348L41.7828 64.1581ZM28.9189 58.2459L36.0589 58.6839L37.435 54.8757L33.6656 53.1239L28.9189 58.2459ZM0.717986 49.2396L1.88471 56.4942L9.03466 56.9321L25.4586 49.192L9.03466 41.4424L1.88471 41.8898L0.717986 49.2396ZM4.59711 67.8425L8.58592 74.126L15.3669 71.9363L27.443 58.7886L9.18424 57.6652L2.75228 60.6832L4.59711 67.8425ZM9.18424 40.8616L27.443 39.6906L15.4068 26.5429L8.62581 24.3532L4.637 30.6843L2.75228 37.8437L9.18424 40.8616ZM36.5276 39.1575L40.7158 38.8624L40.9651 34.8733L34.1841 32.6836L36.5276 39.1575ZM41.6332 26.2002L42.8797 8.76831L39.6887 2.62764L32.1399 4.37939L25.5583 8.23516L27.8519 14.709L41.6332 26.2002ZM60.4505 8.76831L61.677 26.2002L75.4484 14.709L77.7819 8.23516L71.1704 4.37939L63.6714 2.62764L60.4505 8.76831ZM62.2355 34.8733L62.4947 38.8624L66.683 39.1575L68.9766 32.6836L62.2355 34.8733ZM75.7875 39.6906L94.0562 40.8616L100.478 37.8437L98.6434 30.6843L94.6545 24.4008L87.8636 26.5905L75.7875 39.6906ZM94.0762 57.6652L75.7875 58.8362L87.8436 71.9839L94.6346 74.1736L98.6234 67.8901L100.458 60.6832L94.0762 57.6652ZM66.7328 59.3693L62.5446 59.6169L62.2953 63.6059L69.0763 65.7956L66.7328 59.3693ZM61.677 72.3552L60.4505 89.7585L63.6116 95.8992L71.1205 94.1474L77.6921 90.3393L75.3985 83.7797L61.677 72.3552ZM42.8797 89.7585L41.6332 72.3552L27.8519 83.7797L25.5583 90.2631L32.1399 94.0713L39.6388 95.823L42.8797 89.7585ZM41.015 63.6535L40.7657 59.6645L36.5774 59.4169L34.2839 65.9003L41.015 63.6535ZM15.6561 83.6464L21.9385 87.9592L27.3433 83.4274L33.2069 66.919L15.8156 72.517L11.069 77.6866L15.6561 83.6464ZM76.0168 83.4465L81.4217 87.9782L87.6442 83.6464L92.1815 77.7057L87.4348 72.5361L70.0934 66.919L76.0168 83.4465ZM87.4946 26.0098L92.2413 20.8497L87.6442 14.8995L81.4217 10.5677L76.0168 15.0518L70.1433 31.6078L87.4946 26.0098ZM27.2935 15.0518L21.9385 10.5677L15.6561 14.8995L11.1188 20.8497L15.8655 26.0098L33.2168 31.6078L27.2935 15.0518ZM33.4661 52.3052L36.2184 49.2872L33.4661 46.2692L27.0342 49.2872L33.4661 52.3052ZM48.4242 31.9029L51.5853 34.5306L54.7465 31.9029L51.5853 25.7623L48.4242 31.9029ZM69.8042 46.2216L67.0519 49.2396L69.8042 52.2576L76.2362 49.2396L69.8042 46.2216ZM54.8462 66.5763L51.6851 63.9487L48.4641 66.5763L51.6252 72.717L54.8462 66.5763Z" fill="#0A9147"/>
<path d="M36.7867 58.7412L41.4237 59.0268L41.7328 63.4633L46.1205 62.0067L48.1548 65.9958L51.625 63.073L55.0953 65.9958L57.1894 62.0067L61.5771 63.4633L61.8863 59.0268L66.5233 58.7412L64.9975 54.5522L69.1758 52.6005L66.1144 49.2398L69.1758 45.9267L64.9975 43.975L66.5233 39.7956L61.8863 39.5004L61.5771 35.0639L57.1894 36.5301L55.0953 32.5315L51.625 35.4543L48.1548 32.5315L46.1205 36.5301L41.7328 35.0639L41.4237 39.5004L36.7867 39.7956L38.2625 43.975L34.1341 45.9267L37.1955 49.2398L34.1341 52.6005L38.2625 54.5522L36.7867 58.7412Z" fill="#1676B4"/>
<path d="M113.831 70.2607C113.83 70.3049 113.838 70.3488 113.855 70.3898C113.872 70.4308 113.898 70.4681 113.93 70.4993C113.963 70.5305 114.002 70.555 114.045 70.5713C114.088 70.5875 114.134 70.5953 114.18 70.5939H114.539C114.639 70.5966 114.739 70.5796 114.832 70.5442C114.926 70.5088 115.01 70.4556 115.081 70.3879C115.152 70.3202 115.208 70.2393 115.245 70.1504C115.282 70.0614 115.3 69.9661 115.297 69.8704V66.7191H120.532C121.519 66.7217 122.467 66.3519 123.169 65.6903C123.871 65.0287 124.271 64.129 124.282 63.1871V57.4177C124.282 56.9494 124.185 56.4857 123.996 56.0535C123.807 55.6213 123.53 55.2292 123.181 54.8998C122.832 54.5705 122.419 54.3104 121.964 54.1347C121.509 53.9589 121.023 53.8711 120.532 53.8761H114.18C114.133 53.8761 114.087 53.885 114.044 53.9023C114.001 53.9197 113.962 53.9451 113.93 53.977C113.897 54.009 113.872 54.0469 113.855 54.0884C113.838 54.1299 113.83 54.1743 113.831 54.2188V70.2607ZM115.347 65.3101V55.3327H120.582C121.181 55.3276 121.757 55.5492 122.185 55.9488C122.613 56.3485 122.858 56.8938 122.866 57.4653V63.1775C122.862 63.4601 122.8 63.7392 122.683 63.9988C122.566 64.2584 122.397 64.4935 122.185 64.6907C121.973 64.8878 121.722 65.0431 121.447 65.1478C121.172 65.2524 120.878 65.3044 120.582 65.3006L115.347 65.3101ZM126.875 66.3764C126.874 66.4248 126.885 66.4727 126.905 66.517C126.926 66.5613 126.956 66.6009 126.993 66.6333C127.031 66.6657 127.075 66.69 127.124 66.7048C127.172 66.7196 127.223 66.7245 127.273 66.7191H127.991C128.038 66.7205 128.085 66.7126 128.129 66.6957C128.173 66.6788 128.212 66.6535 128.245 66.6212C128.278 66.589 128.303 66.5506 128.32 66.5084C128.336 66.4663 128.343 66.4213 128.34 66.3764V57.4177C128.346 56.8536 128.583 56.3141 129 55.9152C129.418 55.5164 129.983 55.2901 130.574 55.2851H132.349C132.55 55.2804 132.741 55.2029 132.883 55.0685C133.026 54.9341 133.109 54.7528 133.117 54.5616V54.2664C133.11 54.1777 133.07 54.0943 133.004 54.0314C132.938 53.9685 132.851 53.9303 132.758 53.9237H130.574C129.586 53.9211 128.637 54.2922 127.934 54.9559C127.231 55.6195 126.833 56.5217 126.825 57.4653V66.424L126.875 66.3764ZM138.243 66.7191H141.234C142.223 66.7242 143.173 66.3555 143.877 65.6937C144.582 65.0318 144.983 64.1306 144.994 63.1871V57.4177C144.994 56.9486 144.896 56.4841 144.707 56.0513C144.517 55.6185 144.239 55.2259 143.89 54.8964C143.54 54.5669 143.125 54.307 142.669 54.1319C142.213 53.9567 141.726 53.8698 141.234 53.8761H138.243C137.255 53.8785 136.308 54.2509 135.605 54.9132C134.902 55.5755 134.499 56.4748 134.483 57.4177V63.1299C134.488 64.0803 134.886 64.9903 135.59 65.6624C136.294 66.3344 137.247 66.7141 138.243 66.7191ZM138.243 55.2946H141.234C141.833 55.2895 142.409 55.5111 142.837 55.9108C143.265 56.3104 143.51 56.8557 143.518 57.4272V63.1395C143.51 63.711 143.265 64.2562 142.837 64.6559C142.409 65.0556 141.833 65.2771 141.234 65.272H138.243C137.652 65.2671 137.087 65.0408 136.669 64.6419C136.251 64.2431 136.014 63.7035 136.009 63.1395V57.4272C136.014 56.8632 136.251 56.3236 136.669 55.9247C137.087 55.5259 137.652 55.2996 138.243 55.2946ZM146.968 66.4335C146.968 66.4828 146.978 66.5317 146.999 66.5767C147.02 66.6217 147.051 66.6619 147.09 66.6944C147.129 66.7269 147.175 66.7511 147.224 66.7652C147.274 66.7793 147.326 66.7831 147.377 66.7763H153.719C154.7 66.784 155.644 66.4226 156.348 65.7705C157.051 65.1183 157.458 64.2278 157.479 63.2918C157.499 62.823 157.414 62.3556 157.23 61.9206C157.046 61.4856 156.767 61.093 156.412 60.7689C155.678 60.0856 154.694 59.703 153.669 59.7026H150.777C150.213 59.6877 149.672 59.4819 149.252 59.1218C149.035 58.939 148.86 58.7151 148.738 58.4644C148.616 58.2137 148.55 57.9415 148.544 57.6652C148.528 57.3733 148.573 57.0813 148.678 56.8065C148.782 56.5317 148.944 56.2798 149.152 56.0658C149.36 55.8527 149.612 55.6828 149.891 55.5665C150.171 55.4502 150.472 55.3901 150.777 55.3898H155.564C155.664 55.3911 155.764 55.3733 155.857 55.3375C155.95 55.3017 156.035 55.2486 156.106 55.1813C156.178 55.114 156.235 55.0338 156.273 54.9454C156.312 54.857 156.332 54.7621 156.332 54.6663V54.3236C156.332 54.279 156.323 54.2349 156.304 54.1938C156.286 54.1527 156.26 54.1156 156.226 54.0845C156.193 54.0534 156.153 54.0291 156.11 54.0129C156.066 53.9967 156.02 53.9891 155.973 53.9903H150.987C149.965 53.9941 148.983 54.3724 148.245 55.0471C147.891 55.3824 147.614 55.7837 147.43 56.226C147.246 56.6684 147.16 57.1421 147.178 57.6176C147.206 58.5504 147.609 59.4369 148.304 60.0929C148.646 60.4298 149.055 60.6978 149.507 60.881C149.96 61.0641 150.446 61.1587 150.937 61.1592H153.929C154.21 61.1555 154.49 61.2049 154.752 61.3046C155.014 61.4042 155.253 61.5522 155.454 61.74C155.676 61.9189 155.855 62.1419 155.977 62.3935C156.099 62.6451 156.163 62.9192 156.162 63.1966C156.179 63.4875 156.133 63.7785 156.028 64.0521C155.924 64.3257 155.762 64.5763 155.554 64.7888C155.345 65.0014 155.093 65.1715 154.814 65.2888C154.535 65.4062 154.234 65.4685 153.929 65.472H147.945C147.744 65.4744 147.552 65.5511 147.409 65.686C147.266 65.8209 147.183 66.0035 147.178 66.1955V66.4335H146.968ZM159.204 70.2417C159.202 70.2866 159.211 70.3314 159.228 70.3731C159.246 70.4148 159.273 70.4525 159.306 70.4839C159.34 70.5152 159.38 70.5395 159.425 70.5552C159.469 70.5709 159.516 70.5776 159.563 70.5749H159.912C160.012 70.5775 160.112 70.5606 160.205 70.5252C160.298 70.4897 160.383 70.4365 160.454 70.3688C160.525 70.3011 160.581 70.2203 160.618 70.1313C160.655 70.0423 160.672 69.9471 160.67 69.8514V66.7191H165.905C166.892 66.7217 167.839 66.3519 168.542 65.6903C169.244 65.0287 169.644 64.129 169.655 63.1871V57.4177C169.655 56.9494 169.557 56.4857 169.368 56.0535C169.179 55.6213 168.903 55.2292 168.554 54.8998C168.205 54.5705 167.792 54.3104 167.337 54.1347C166.882 53.9589 166.396 53.8711 165.905 53.8761H159.553C159.505 53.8748 159.458 53.8827 159.414 53.8995C159.37 53.9163 159.33 53.9415 159.296 53.9735C159.262 54.0056 159.236 54.0439 159.218 54.0861C159.201 54.1283 159.192 54.1735 159.194 54.2188L159.204 70.2417ZM160.73 65.2911V55.3327H165.955C166.554 55.3276 167.13 55.5492 167.558 55.9488C167.986 56.3485 168.231 56.8938 168.239 57.4653V63.1775C168.235 63.4601 168.172 63.7392 168.056 63.9988C167.939 64.2584 167.769 64.4935 167.557 64.6907C167.345 64.8878 167.095 65.0431 166.82 65.1478C166.545 65.2524 166.251 65.3044 165.955 65.3006L160.73 65.2911ZM175.947 66.7477H178.938C179.83 66.7367 180.69 66.4305 181.372 65.8813C181.858 65.4743 182.24 64.9663 182.489 64.3962C182.509 64.3413 182.516 64.2824 182.508 64.2245C182.5 64.1666 182.477 64.1115 182.442 64.0637C182.407 64.016 182.36 63.9772 182.306 63.9505C182.251 63.9239 182.191 63.9102 182.13 63.9106H181.322C181.249 63.902 181.174 63.9159 181.11 63.9501C181.045 63.9843 180.994 64.0371 180.963 64.101C180.782 64.4604 180.499 64.7642 180.147 64.9779C179.794 65.1916 179.386 65.3067 178.968 65.3101H175.977C175.681 65.3064 175.389 65.247 175.117 65.1355C174.845 65.0239 174.598 64.8622 174.392 64.6598C174.185 64.4573 174.023 64.218 173.913 63.9555C173.803 63.693 173.749 63.4125 173.753 63.1299V61.0069H181.97C182.171 61.002 182.362 60.9229 182.504 60.7862C182.645 60.6495 182.725 60.4659 182.728 60.2738V57.4177C182.729 56.9468 182.633 56.4803 182.445 56.0449C182.257 55.6095 181.981 55.2137 181.633 54.8803C181.285 54.5469 180.871 54.2824 180.416 54.1019C179.96 53.9214 179.472 53.8285 178.978 53.8285H175.987C175.496 53.8297 175.011 53.9238 174.559 54.1053C174.106 54.2868 173.696 54.5522 173.352 54.886C173.008 55.2198 172.737 55.6154 172.554 56.05C172.371 56.4845 172.281 56.9494 172.287 57.4177V63.1299C172.275 63.6018 172.362 64.0713 172.542 64.5108C172.723 64.9503 172.993 65.3511 173.337 65.6897C173.682 66.0284 174.094 66.298 174.548 66.4829C175.003 66.6679 175.492 66.7643 175.987 66.7667M175.987 55.3422H178.978C179.577 55.3372 180.153 55.5587 180.581 55.9584C181.009 56.358 181.254 56.9033 181.262 57.4748V59.655H173.753V57.4653C173.756 56.9021 173.99 56.3626 174.407 55.9634C174.823 55.5643 175.387 55.3377 175.977 55.3327M185.271 66.3764C185.27 66.4257 185.281 66.4745 185.302 66.5196C185.323 66.5646 185.354 66.6047 185.393 66.6373C185.432 66.6698 185.477 66.694 185.527 66.7081C185.576 66.7222 185.628 66.726 185.68 66.7191H186.388C186.435 66.7205 186.482 66.7126 186.525 66.6957C186.569 66.6788 186.608 66.6535 186.641 66.6212C186.674 66.589 186.7 66.5506 186.716 66.5084C186.732 66.4663 186.739 66.4213 186.737 66.3764V57.4177C186.742 56.8536 186.979 56.3141 187.397 55.9152C187.814 55.5164 188.38 55.2901 188.97 55.2851H190.745C190.946 55.2804 191.137 55.2029 191.279 55.0685C191.422 54.9341 191.506 54.7528 191.513 54.5616V54.2664C191.506 54.1777 191.466 54.0943 191.4 54.0314C191.335 53.9685 191.247 53.9303 191.154 53.9237H188.97C187.982 53.9211 187.033 54.2922 186.33 54.9559C185.628 55.6195 185.229 56.5217 185.221 57.4653V66.424L185.271 66.3764ZM192.929 66.3764C192.93 66.4252 192.942 66.4733 192.964 66.5176C192.985 66.5619 193.016 66.6014 193.055 66.6337C193.093 66.6659 193.138 66.6901 193.187 66.7048C193.236 66.7196 193.287 66.7244 193.338 66.7191H194.046C194.094 66.7205 194.141 66.7125 194.185 66.6957C194.229 66.679 194.269 66.6538 194.303 66.6217C194.337 66.5896 194.363 66.5513 194.381 66.5091C194.398 66.4669 194.406 66.4218 194.405 66.3764V54.2664C194.406 54.2211 194.398 54.1759 194.381 54.1337C194.363 54.0915 194.337 54.0532 194.303 54.0211C194.269 53.9891 194.229 53.9639 194.185 53.9471C194.141 53.9303 194.094 53.9224 194.046 53.9237H193.338C193.237 53.9208 193.139 53.9546 193.063 54.0182C192.987 54.0818 192.939 54.1705 192.929 54.2664V66.3764ZM192.929 51.258C192.929 51.3615 192.972 51.4608 193.049 51.534C193.126 51.6072 193.23 51.6483 193.338 51.6483H194.046C194.098 51.6488 194.149 51.6386 194.196 51.6185C194.243 51.5984 194.285 51.5688 194.319 51.5317C194.353 51.4947 194.379 51.451 194.394 51.4038C194.408 51.3565 194.412 51.3068 194.405 51.258V50.9248C194.397 50.7396 194.313 50.5648 194.172 50.4382C194.03 50.3117 193.841 50.2436 193.647 50.2488H193.288C193.189 50.2457 193.092 50.2781 193.016 50.3398C192.941 50.4014 192.892 50.4878 192.879 50.582V51.258H192.929ZM200.747 66.7191H202.931C202.979 66.7205 203.026 66.7125 203.07 66.6957C203.114 66.679 203.155 66.6538 203.188 66.6217C203.222 66.5896 203.248 66.5513 203.266 66.5091C203.283 66.4669 203.292 66.4218 203.29 66.3764V65.9956C203.285 65.8027 203.203 65.619 203.06 65.4826C202.917 65.3461 202.724 65.2673 202.522 65.2625H200.747C200.449 65.2688 200.152 65.2185 199.874 65.1144C199.596 65.0103 199.343 64.8545 199.129 64.6561C198.914 64.4577 198.743 64.2206 198.626 63.9586C198.508 63.6966 198.446 63.4149 198.444 63.1299V55.2851H202.253C202.354 55.2755 202.447 55.2299 202.513 55.1575C202.58 55.085 202.615 54.9911 202.612 54.8948V54.5616C202.607 54.3813 202.53 54.2097 202.396 54.0822C202.263 53.9547 202.083 53.8809 201.894 53.8761H198.444V51.6959C198.447 51.6021 198.413 51.5106 198.348 51.44C198.283 51.3693 198.193 51.3247 198.095 51.3151H197.447C197.343 51.3218 197.246 51.364 197.172 51.4341C197.099 51.5041 197.055 51.5971 197.048 51.6959V63.1204C197.031 63.5911 197.116 64.0601 197.295 64.4988C197.474 64.9375 197.745 65.3369 198.091 65.6725C198.437 66.0082 198.851 66.2733 199.308 66.4515C199.764 66.6298 200.254 66.7176 200.747 66.7096M207.907 70.0989C207.886 70.1538 207.88 70.2127 207.888 70.2705C207.896 70.3284 207.918 70.3836 207.954 70.4313C207.989 70.479 208.036 70.5179 208.09 70.5445C208.145 70.5712 208.205 70.5849 208.266 70.5844H208.815C208.972 70.5849 209.126 70.5383 209.255 70.4513C209.384 70.3643 209.481 70.2411 209.533 70.0989L215.516 54.3521C215.539 54.2981 215.548 54.2393 215.541 54.1813C215.535 54.1232 215.513 54.0676 215.479 54.0194C215.444 53.9713 215.397 53.9321 215.343 53.9054C215.289 53.8787 215.228 53.8654 215.167 53.8666H214.658C214.509 53.8691 214.364 53.9115 214.239 53.9889C214.114 54.0663 214.014 54.1756 213.95 54.3045L209.832 65.0626L205.674 54.3045C205.618 54.1704 205.52 54.0561 205.393 53.9776C205.266 53.8992 205.117 53.8603 204.965 53.8666H204.457C204.396 53.8661 204.335 53.8798 204.281 53.9065C204.227 53.9331 204.18 53.972 204.144 54.0197C204.109 54.0674 204.086 54.1226 204.078 54.1805C204.07 54.2383 204.077 54.2972 204.098 54.3521L209.024 67.1952L207.907 70.0989Z" fill="#0A9147"/>
<path d="M116.972 48.4494H123.015C123.115 48.4521 123.215 48.4352 123.308 48.3997C123.401 48.3643 123.486 48.3111 123.557 48.2434C123.628 48.1756 123.684 48.0948 123.721 48.0059C123.758 47.9169 123.776 47.8216 123.773 47.7259V39.1004C123.774 38.6295 123.678 38.163 123.49 37.7276C123.302 37.2922 123.027 36.8964 122.678 36.563C122.33 36.2296 121.916 35.9651 121.461 35.7846C121.005 35.6041 120.517 35.5112 120.023 35.5112H115.755C115.66 35.5112 115.569 35.5473 115.502 35.6116C115.434 35.6759 115.396 35.763 115.396 35.8539V36.1776C115.396 36.2734 115.416 36.3683 115.455 36.4567C115.494 36.5451 115.55 36.6253 115.622 36.6926C115.693 36.76 115.778 36.8131 115.871 36.8489C115.964 36.8847 116.064 36.9024 116.164 36.9012H120.073C120.672 36.8961 121.248 37.1176 121.676 37.5173C122.104 37.917 122.349 38.4622 122.357 39.0337V40.6522H117.082C116.588 40.651 116.1 40.7426 115.644 40.922C115.188 41.1013 114.773 41.3648 114.424 41.6973C114.075 42.0298 113.798 42.4249 113.609 42.8598C113.419 43.2947 113.322 43.761 113.322 44.2319V44.8126C113.301 45.2829 113.379 45.7524 113.553 46.1929C113.727 46.6334 113.992 47.0357 114.333 47.3756C114.674 47.7155 115.084 47.9859 115.537 48.1704C115.991 48.355 116.479 48.4499 116.972 48.4494ZM116.972 42.1564H122.257V47.0023H116.972C116.372 46.9923 115.801 46.7566 115.383 46.3465C114.965 45.9364 114.733 45.3851 114.738 44.8126V44.2319C114.738 43.9545 114.796 43.6798 114.909 43.4242C115.022 43.1686 115.188 42.9373 115.396 42.7438C115.604 42.5503 115.851 42.3986 116.122 42.2977C116.392 42.1969 116.681 42.1488 116.972 42.1564ZM129.357 48.4494H132.349C133.123 48.442 133.877 48.2118 134.512 47.7889C135.147 47.366 135.634 46.77 135.909 46.0789C135.93 46.024 135.936 45.9651 135.928 45.9072C135.92 45.8493 135.898 45.7942 135.862 45.7465C135.827 45.6987 135.78 45.6599 135.726 45.6332C135.671 45.6066 135.611 45.5929 135.55 45.5933H134.742C134.669 45.5832 134.594 45.5963 134.529 45.6307C134.464 45.6651 134.413 45.7189 134.383 45.7837C134.196 46.1605 133.901 46.4792 133.532 46.7032C133.163 46.9272 132.736 47.0473 132.299 47.0499H129.307C129.01 47.05 128.715 46.9933 128.441 46.8832C128.167 46.773 127.918 46.6117 127.71 46.4086C127.502 46.2055 127.338 45.9648 127.229 45.7005C127.12 45.4362 127.067 45.1538 127.074 44.8698V39.1575C127.072 38.8771 127.129 38.5992 127.241 38.3399C127.353 38.0806 127.517 37.845 127.725 37.6467C127.933 37.4485 128.179 37.2914 128.451 37.1847C128.723 37.078 129.014 37.0237 129.307 37.0249H132.299C132.729 37.0244 133.151 37.137 133.519 37.3503C133.886 37.5635 134.185 37.8693 134.383 38.234C134.408 38.306 134.456 38.3687 134.521 38.4131C134.585 38.4575 134.663 38.4815 134.742 38.4816H135.55C135.611 38.482 135.671 38.4683 135.726 38.4417C135.78 38.415 135.827 38.3761 135.862 38.3284C135.898 38.2807 135.92 38.2256 135.928 38.1677C135.936 38.1098 135.93 38.0509 135.909 37.996C135.69 37.4052 135.303 36.8843 134.792 36.4918C134.118 35.925 133.247 35.6164 132.349 35.6254H129.357C128.371 35.633 127.427 36.0124 126.732 36.6812C126.037 37.3499 125.648 38.2537 125.648 39.1956V44.8126C125.642 45.7705 126.035 46.6913 126.74 47.373C127.445 48.0548 128.404 48.4419 129.407 48.4494M140.825 48.4494H143.817C144.589 48.4401 145.341 48.209 145.974 47.7862C146.607 47.3634 147.093 46.7685 147.367 46.0789C147.388 46.024 147.394 45.9651 147.386 45.9072C147.378 45.8493 147.355 45.7942 147.32 45.7465C147.285 45.6987 147.238 45.6599 147.184 45.6332C147.129 45.6066 147.069 45.5929 147.008 45.5933H146.2C146.127 45.5848 146.053 45.5986 145.988 45.6328C145.924 45.667 145.872 45.7198 145.841 45.7837C145.649 46.155 145.354 46.4692 144.988 46.6923C144.623 46.9155 144.201 47.0391 143.767 47.0499H140.775C140.478 47.05 140.183 46.9933 139.909 46.8832C139.634 46.773 139.386 46.6117 139.178 46.4086C138.97 46.2055 138.806 45.9648 138.697 45.7005C138.588 45.4362 138.535 45.1538 138.541 44.8698V39.1575C138.54 38.8771 138.597 38.5992 138.709 38.3399C138.821 38.0806 138.985 37.845 139.193 37.6467C139.4 37.4485 139.647 37.2914 139.919 37.1847C140.19 37.078 140.481 37.0237 140.775 37.0249H143.767C144.195 37.0262 144.615 37.1396 144.981 37.3527C145.347 37.5659 145.644 37.8707 145.841 38.234C145.866 38.306 145.914 38.3687 145.979 38.4131C146.043 38.4575 146.121 38.4815 146.2 38.4816H147.008C147.069 38.482 147.129 38.4683 147.184 38.4417C147.238 38.415 147.285 38.3761 147.32 38.3284C147.355 38.2807 147.378 38.2256 147.386 38.1677C147.394 38.1098 147.388 38.0509 147.367 37.996C147.148 37.4052 146.761 36.8843 146.25 36.4918C145.578 35.9264 144.712 35.6179 143.817 35.6254H140.825C140.332 35.6242 139.844 35.7159 139.389 35.8954C138.933 36.0748 138.519 36.3384 138.171 36.6711C137.822 37.0038 137.546 37.3989 137.358 37.8337C137.17 38.2686 137.074 38.7347 137.076 39.2051V44.8222C137.07 45.7784 137.462 46.6977 138.164 47.3792C138.867 48.0607 139.824 48.4489 140.825 48.459M152.243 48.459H155.235C156.127 48.452 156.989 48.1453 157.668 47.5926C158.161 47.184 158.544 46.6681 158.785 46.0884C158.806 46.0335 158.812 45.9746 158.804 45.9167C158.796 45.8588 158.773 45.8037 158.738 45.756C158.703 45.7083 158.656 45.6694 158.602 45.6428C158.547 45.6161 158.487 45.6024 158.426 45.6028H157.558C157.485 45.5943 157.411 45.6081 157.346 45.6423C157.282 45.6765 157.23 45.7294 157.199 45.7932C157.009 46.1659 156.714 46.4812 156.348 46.7046C155.982 46.9279 155.559 47.0507 155.125 47.0595H152.133C151.833 47.0607 151.536 47.0052 151.258 46.8961C150.98 46.787 150.728 46.6264 150.516 46.4237C150.303 46.221 150.135 45.9802 150.021 45.7151C149.907 45.45 149.848 45.1659 149.85 44.8793V42.7372H158.127C158.227 42.7385 158.327 42.7204 158.421 42.6839C158.514 42.6474 158.598 42.5933 158.669 42.5248C158.74 42.4563 158.795 42.3749 158.832 42.2855C158.869 42.196 158.887 42.1003 158.884 42.0041V39.148C158.884 38.6734 158.786 38.2036 158.594 37.7656C158.403 37.3277 158.123 36.9303 157.769 36.5965C157.416 36.2627 156.997 35.9991 156.536 35.821C156.075 35.6429 155.582 35.5538 155.085 35.5588H152.093C151.6 35.5588 151.112 35.6517 150.656 35.8322C150.201 36.0127 149.787 36.2772 149.439 36.6106C149.09 36.944 148.814 37.3398 148.627 37.7752C148.439 38.2106 148.343 38.6771 148.344 39.148V44.9174C148.382 45.8715 148.803 46.7751 149.52 47.4413C150.236 48.1076 151.193 48.4855 152.193 48.497M152.193 37.0154H155.185C155.783 37.0103 156.36 37.2319 156.788 37.6315C157.216 38.0312 157.46 38.5765 157.468 39.148V41.3282H149.9V39.1004C149.918 38.532 150.166 37.9924 150.591 37.5948C151.017 37.1972 151.588 36.9725 152.183 36.9678M160.819 48.0686C160.818 48.119 160.827 48.1691 160.847 48.2159C160.866 48.2627 160.895 48.3052 160.933 48.3408C160.97 48.3764 161.015 48.4045 161.064 48.4231C161.113 48.4418 161.165 48.4508 161.218 48.4494H161.986C162.036 48.4484 162.085 48.4375 162.13 48.4174C162.175 48.3972 162.215 48.3683 162.248 48.3325C162.281 48.2967 162.306 48.2547 162.321 48.2093C162.335 48.1638 162.34 48.1159 162.335 48.0686V32.3695C162.336 32.2741 162.317 32.1794 162.28 32.0911C162.242 32.0027 162.186 31.9224 162.116 31.855C162.045 31.7875 161.961 31.7343 161.868 31.6984C161.776 31.6625 161.677 31.6446 161.577 31.6459H161.218C161.118 31.6432 161.021 31.6773 160.947 31.7411C160.872 31.8049 160.827 31.8935 160.819 31.9886V48.0686ZM169.395 48.4494H172.387C173.282 48.4431 174.147 48.1364 174.83 47.5831C175.317 47.1717 175.697 46.6564 175.937 46.0789C175.96 46.0248 175.968 45.9661 175.962 45.908C175.955 45.85 175.934 45.7943 175.899 45.7462C175.865 45.698 175.818 45.6588 175.764 45.6322C175.709 45.6055 175.649 45.5921 175.588 45.5933H174.77C174.698 45.5838 174.625 45.5973 174.561 45.6317C174.498 45.6662 174.449 45.7196 174.421 45.7837C174.228 46.1564 173.931 46.4715 173.564 46.6948C173.197 46.918 172.772 47.0408 172.337 47.0499H169.345C169.045 47.0512 168.747 46.9957 168.47 46.8866C168.192 46.7774 167.94 46.6169 167.727 46.4142C167.515 46.2115 167.347 45.9707 167.233 45.7056C167.118 45.4405 167.06 45.1564 167.061 44.8698V42.7372H175.328C175.43 42.7385 175.53 42.7204 175.624 42.684C175.717 42.6476 175.803 42.5937 175.874 42.5253C175.946 42.457 176.002 42.3757 176.04 42.2862C176.079 42.1966 176.097 42.1007 176.096 42.0041V39.148C176.096 38.6726 175.997 38.202 175.805 37.7634C175.613 37.3248 175.332 36.927 174.977 36.5931C174.623 36.2592 174.203 35.9958 173.741 35.8182C173.279 35.6407 172.785 35.5525 172.287 35.5588H169.295C168.306 35.5562 167.356 35.927 166.651 36.5904C165.947 37.2538 165.546 38.156 165.536 39.1004V44.8698C165.574 45.8255 165.996 46.7305 166.715 47.397C167.433 48.0635 168.393 48.4404 169.395 48.4494ZM169.395 36.9678H172.387C172.985 36.9627 173.562 37.1843 173.99 37.5839C174.418 37.9836 174.662 38.5289 174.67 39.1004V41.2806H167.111V39.1004C167.137 38.5343 167.387 37.9987 167.811 37.6026C168.235 37.2064 168.802 36.9794 169.395 36.9678ZM178.499 48.0686C178.498 48.1136 178.506 48.1583 178.524 48.2C178.542 48.2417 178.568 48.2795 178.602 48.3108C178.636 48.3422 178.676 48.3664 178.72 48.3821C178.764 48.3978 178.811 48.4045 178.858 48.4018H179.616C179.663 48.4031 179.709 48.3954 179.753 48.3793C179.796 48.3631 179.836 48.3388 179.87 48.3077C179.903 48.2766 179.93 48.2394 179.948 48.1984C179.966 48.1573 179.975 48.1132 179.975 48.0686V39.0337C179.973 38.753 180.029 38.4745 180.14 38.2147C180.251 37.9548 180.416 37.7187 180.624 37.5201C180.832 37.3216 181.079 37.1646 181.351 37.0583C181.623 36.9521 181.915 36.8986 182.209 36.9012H184.034C184.233 36.8964 184.423 36.8186 184.564 36.6839C184.705 36.5492 184.787 36.368 184.792 36.1776V35.8349C184.784 35.7398 184.738 35.6511 184.664 35.5873C184.59 35.5235 184.493 35.4894 184.393 35.4922H182.209C181.216 35.5022 180.268 35.8877 179.573 36.5641C178.877 37.2405 178.491 38.1526 178.499 39.1004V48.0686ZM188.092 48.4494H194.136C194.235 48.4507 194.335 48.4329 194.427 48.397C194.52 48.3611 194.604 48.3078 194.674 48.2404C194.745 48.1729 194.801 48.0927 194.838 48.0043C194.876 47.9159 194.895 47.8213 194.893 47.7259V39.1004C194.895 38.6287 194.798 38.1614 194.61 37.7254C194.421 37.2894 194.145 36.8932 193.795 36.5596C193.446 36.2261 193.031 35.9618 192.574 35.7818C192.117 35.6019 191.628 35.5099 191.134 35.5112H186.876C186.828 35.5099 186.781 35.5178 186.737 35.5346C186.693 35.5514 186.653 35.5766 186.619 35.6087C186.585 35.6407 186.559 35.679 186.541 35.7212C186.524 35.7634 186.516 35.8086 186.517 35.8539V36.1776C186.517 36.2734 186.537 36.3683 186.576 36.4567C186.614 36.5451 186.671 36.6253 186.742 36.6926C186.814 36.76 186.899 36.8131 186.992 36.8489C187.085 36.8847 187.184 36.9024 187.285 36.9012H191.184C191.484 36.8936 191.782 36.9429 192.062 37.0463C192.341 37.1498 192.596 37.3052 192.813 37.5036C193.029 37.702 193.202 37.9395 193.321 38.2021C193.44 38.4648 193.503 38.7475 193.507 39.0337V40.6522H188.232C187.238 40.6522 186.284 41.0294 185.581 41.7007C184.878 42.372 184.483 43.2825 184.483 44.2319V44.8126C184.458 45.2836 184.535 45.7543 184.707 46.196C184.88 46.6377 185.145 47.0411 185.487 47.3816C185.829 47.722 186.24 47.9923 186.694 48.1759C187.149 48.3595 187.639 48.4526 188.132 48.4494M188.132 42.1564H193.457V47.0023H188.182C187.583 46.9923 187.012 46.7566 186.593 46.3465C186.175 45.9364 185.943 45.3851 185.949 44.8126V44.2319C185.944 43.9533 185.999 43.6769 186.111 43.4194C186.222 43.162 186.388 42.929 186.597 42.7347C186.806 42.5403 187.055 42.3888 187.327 42.2894C187.6 42.19 187.891 42.1448 188.182 42.1564M200.817 48.4494H203.001C203.048 48.4521 203.095 48.4454 203.139 48.4297C203.183 48.414 203.223 48.3898 203.257 48.3584C203.291 48.3271 203.317 48.2893 203.335 48.2476C203.353 48.2059 203.361 48.1612 203.36 48.1162V47.7259C203.355 47.5355 203.273 47.3543 203.132 47.2196C202.991 47.0849 202.801 47.0072 202.602 47.0023H200.767C200.466 47.0153 200.165 46.9696 199.883 46.8681C199.601 46.7666 199.343 46.6114 199.126 46.4119C198.909 46.2125 198.736 45.9729 198.619 45.7078C198.501 45.4427 198.442 45.1576 198.443 44.8698V36.9678H202.303C202.404 36.9605 202.498 36.9155 202.566 36.8426C202.633 36.7696 202.667 36.6744 202.662 36.5775V36.1776C202.659 35.9982 202.584 35.8267 202.452 35.6989C202.32 35.5711 202.142 35.4971 201.954 35.4922H198.493V33.3215C198.492 33.2739 198.481 33.227 198.46 33.1839C198.439 33.1408 198.408 33.1023 198.371 33.071C198.333 33.0396 198.289 33.0161 198.242 33.0018C198.194 32.9876 198.144 32.983 198.094 32.9883H197.446C197.35 32.9931 197.259 33.0286 197.186 33.089C197.114 33.1494 197.065 33.2313 197.047 33.3215V44.8698C197.047 45.8192 197.442 46.7297 198.146 47.401C198.849 48.0723 199.802 48.4494 200.797 48.4494M208.266 48.4494H211.307C212.2 48.4425 213.061 48.1358 213.741 47.5831C214.219 47.1615 214.599 46.6491 214.857 46.0789C214.881 46.0248 214.889 45.9661 214.883 45.908C214.876 45.85 214.855 45.7943 214.82 45.7462C214.786 45.698 214.739 45.6588 214.685 45.6322C214.63 45.6055 214.57 45.5921 214.508 45.5933H213.691C213.618 45.5862 213.544 45.6006 213.48 45.6347C213.416 45.6687 213.364 45.7207 213.332 45.7837C213.154 46.1497 212.873 46.4617 212.521 46.6851C212.169 46.9086 211.76 47.0348 211.337 47.0499H208.296C207.697 47.0424 207.126 46.8088 206.707 46.4002C206.289 45.9916 206.057 45.4413 206.062 44.8698V42.7372H214.329C214.43 42.7385 214.531 42.7204 214.624 42.684C214.718 42.6476 214.803 42.5937 214.875 42.5253C214.946 42.457 215.003 42.3757 215.041 42.2862C215.079 42.1966 215.098 42.1007 215.097 42.0041V39.148C215.098 38.6763 215.002 38.209 214.813 37.773C214.625 37.337 214.348 36.9408 213.999 36.6072C213.649 36.2737 213.234 36.0094 212.778 35.8294C212.321 35.6495 211.831 35.5575 211.337 35.5588H208.296C207.802 35.5575 207.312 35.6495 206.856 35.8294C206.399 36.0094 205.984 36.2737 205.635 36.6072C205.285 36.9408 205.008 37.337 204.82 37.773C204.631 38.209 204.535 38.6763 204.536 39.148V44.9174C204.544 45.8661 204.943 46.7737 205.647 47.4437C206.35 48.1136 207.302 48.4921 208.296 48.497M208.296 37.0154H211.337C211.936 37.0103 212.512 37.2319 212.94 37.6315C213.368 38.0312 213.613 38.5765 213.621 39.148V41.3282H206.112V39.1004C206.104 38.8223 206.155 38.5454 206.261 38.2864C206.367 38.0273 206.527 37.7913 206.731 37.5923C206.934 37.3934 207.178 37.2356 207.447 37.1283C207.716 37.021 208.004 36.9664 208.296 36.9678" fill="#1676B4"/>
</svg>
