<svg width="50" height="50" viewBox="0 0 50 50" fill="none" xmlns="http://www.w3.org/2000/svg">
<path d="M17.7083 20.8334C17.118 20.8334 16.6236 20.6334 16.225 20.2334C15.8264 19.8334 15.6264 19.3389 15.625 18.75C15.6236 18.1611 15.8236 17.6667 16.225 17.2667C16.6264 16.8667 17.1208 16.6667 17.7083 16.6667C18.2958 16.6667 18.791 16.8667 19.1937 17.2667C19.5965 17.6667 19.7958 18.1611 19.7916 18.75C19.7875 19.3389 19.5875 19.8341 19.1916 20.2354C18.7958 20.6368 18.3014 20.8361 17.7083 20.8334ZM32.2916 20.8334C31.7014 20.8334 31.2069 20.6334 30.8083 20.2334C30.4097 19.8334 30.2097 19.3389 30.2083 18.75C30.2069 18.1611 30.4069 17.6667 30.8083 17.2667C31.2097 16.8667 31.7041 16.6667 32.2916 16.6667C32.8791 16.6667 33.3743 16.8667 33.7771 17.2667C34.1798 17.6667 34.3791 18.1611 34.375 18.75C34.3708 19.3389 34.1708 19.8341 33.775 20.2354C33.3791 20.6368 32.8847 20.8361 32.2916 20.8334ZM25 45.8334C20.3472 45.8334 16.4062 44.2188 13.1771 40.9896C9.9479 37.7604 8.33331 33.8195 8.33331 29.1667V18.75C8.33331 14.5139 9.99998 11.0243 13.3333 8.28127C16.6666 5.53821 20.5555 4.16669 25 4.16669C29.4444 4.16669 33.3333 5.53821 36.6666 8.28127C40 11.0243 41.6666 14.5139 41.6666 18.75V39.5834C41.6666 40.1736 41.4666 40.6688 41.0666 41.0688C40.6666 41.4688 40.1722 41.6681 39.5833 41.6667H37.5C35.7639 41.6667 34.2882 41.0591 33.0729 39.8438C31.8576 38.6285 31.25 37.1528 31.25 35.4167V35.3125C31.25 34.6181 31.0333 34.0972 30.6 33.75C30.1666 33.4028 29.6889 33.2292 29.1666 33.2292C28.6444 33.2292 28.1673 33.4028 27.7354 33.75C27.3035 34.0972 27.0861 34.6181 27.0833 35.3125V35.4167C27.0833 37.0834 27.4479 38.6285 28.1771 40.0521C28.9062 41.4757 29.8785 42.6563 31.0937 43.5938C31.6146 43.9757 31.7972 44.4445 31.6416 45C31.4861 45.5556 31.1472 45.8334 30.625 45.8334H25ZM25 29.1667C28.2986 29.1667 31.2069 28.2028 33.725 26.275C36.243 24.3472 37.5014 21.8389 37.5 18.75C37.5 17.5347 37.2916 16.3972 36.875 15.3375C36.4583 14.2778 35.868 13.332 35.1041 12.5C32.8819 12.5695 30.9896 13.4028 29.4271 15C27.8646 16.5972 27.0833 18.5417 27.0833 20.8334C27.0833 21.4236 26.884 21.9188 26.4854 22.3188C26.0868 22.7188 25.5916 22.9181 25 22.9167C24.4083 22.9153 23.9139 22.7153 23.5166 22.3167C23.1194 21.9181 22.9194 21.4236 22.9166 20.8334C22.9166 18.5417 22.1354 16.6146 20.5729 15.0521C19.0104 13.4896 17.118 12.6563 14.8958 12.5521C14.1319 13.3854 13.5416 14.3229 13.125 15.3646C12.7083 16.4063 12.5 17.5347 12.5 18.75C12.5 21.8403 13.759 24.3493 16.2771 26.2771C18.7951 28.2049 21.7028 29.1681 25 29.1667Z" fill="url(#paint0_linear_37_48)"/>
<defs>
<linearGradient id="paint0_linear_37_48" x1="9.87803" y1="4.16667" x2="44.0439" y2="5.95077" gradientUnits="userSpaceOnUse">
<stop stop-color="#2F6F78"/>
<stop offset="1" stop-color="#1E214A"/>
</linearGradient>
</defs>
</svg>
