<svg width="47" height="47" viewBox="0 0 47 47" fill="none" xmlns="http://www.w3.org/2000/svg">
<path d="M39.1667 33.2916C40.2054 33.2916 41.2016 32.879 41.9362 32.1445C42.6707 31.4099 43.0833 30.4137 43.0833 29.375V7.83329C43.0833 6.79453 42.6707 5.79831 41.9362 5.06379C41.2016 4.32927 40.2054 3.91663 39.1667 3.91663H18.5258C19.2113 5.11121 19.5833 6.46246 19.5833 7.83329H39.1667V29.375H21.5417V33.2916M29.375 13.7083V17.625H17.625V43.0833H13.7083V31.3333H9.79167V43.0833H5.875V27.4166H2.9375V17.625C2.9375 16.5862 3.35015 15.59 4.08466 14.8555C4.81918 14.1209 5.8154 13.7083 6.85417 13.7083H29.375ZM15.6667 7.83329C15.6667 8.87206 15.254 9.86828 14.5195 10.6028C13.785 11.3373 12.7888 11.75 11.75 11.75C10.7112 11.75 9.71502 11.3373 8.9805 10.6028C8.24598 9.86828 7.83333 8.87206 7.83333 7.83329C7.83333 6.79453 8.24598 5.79831 8.9805 5.06379C9.71502 4.32927 10.7112 3.91663 11.75 3.91663C12.7888 3.91663 13.785 4.32927 14.5195 5.06379C15.254 5.79831 15.6667 6.79453 15.6667 7.83329Z" fill="url(#paint0_linear_37_79)"/>
<defs>
<linearGradient id="paint0_linear_37_79" x1="2.9375" y1="3.91663" x2="49.2921" y2="13.7171" gradientUnits="userSpaceOnUse">
<stop stop-color="#BCDCEA"/>
<stop offset="1" stop-color="#AFB0C8"/>
</linearGradient>
</defs>
</svg>
