<svg width="9" height="9" viewBox="0 0 9 9" fill="none" xmlns="http://www.w3.org/2000/svg">
<g clip-path="url(#clip0_36_28)">
<path d="M4.5 0.914062C3.79077 0.914062 3.09747 1.12437 2.50776 1.5184C1.91806 1.91243 1.45844 2.47248 1.18703 3.12772C0.915616 3.78297 0.844603 4.50398 0.982967 5.19958C1.12133 5.89519 1.46286 6.53414 1.96436 7.03564C2.46586 7.53714 3.10482 7.87867 3.80042 8.01703C4.49602 8.1554 5.21704 8.08439 5.87228 7.81297C6.52752 7.54156 7.08757 7.08194 7.4816 6.49224C7.87563 5.90254 8.08594 5.20923 8.08594 4.5C8.08482 3.54929 7.70666 2.63784 7.03441 1.96559C6.36216 1.29334 5.45071 0.915179 4.5 0.914062ZM4.5 7.66406C3.87421 7.66406 3.26247 7.47849 2.74214 7.13082C2.22182 6.78315 1.81627 6.28899 1.57679 5.71083C1.33731 5.13268 1.27465 4.49649 1.39674 3.88272C1.51882 3.26895 1.82017 2.70517 2.26267 2.26267C2.70517 1.82017 3.26896 1.51882 3.88272 1.39673C4.49649 1.27465 5.13268 1.33731 5.71084 1.57679C6.28899 1.81627 6.78315 2.22181 7.13082 2.74214C7.4785 3.26247 7.66406 3.87421 7.66406 4.5C7.66313 5.33888 7.32948 6.14313 6.7363 6.7363C6.14313 7.32948 5.33888 7.66313 4.5 7.66406ZM5.20875 4.90148C5.42967 4.80342 5.6102 4.63245 5.72014 4.4172C5.83007 4.20194 5.86273 3.95545 5.81265 3.71899C5.76258 3.48253 5.6328 3.27045 5.44505 3.11823C5.2573 2.96601 5.02296 2.8829 4.78125 2.88281H3.65625C3.60031 2.88281 3.54665 2.90504 3.5071 2.94459C3.46754 2.98415 3.44531 3.03781 3.44531 3.09375V5.90625C3.44531 5.96219 3.46754 6.01585 3.5071 6.05541C3.54665 6.09496 3.60031 6.11719 3.65625 6.11719C3.7122 6.11719 3.76585 6.09496 3.80541 6.05541C3.84497 6.01585 3.86719 5.96219 3.86719 5.90625V4.99219H4.76227L5.44922 6.02332C5.48027 6.06994 5.52857 6.10232 5.58349 6.11333C5.63841 6.12434 5.69545 6.11308 5.74207 6.08203C5.78869 6.05098 5.82107 6.00269 5.83208 5.94776C5.84309 5.89284 5.83183 5.8358 5.80078 5.78918L5.20875 4.90148ZM3.86719 3.30469H4.78125C4.94908 3.30469 5.11004 3.37136 5.22872 3.49003C5.34739 3.60871 5.41406 3.76967 5.41406 3.9375C5.41406 4.10533 5.34739 4.26629 5.22872 4.38497C5.11004 4.50364 4.94908 4.57031 4.78125 4.57031H3.86719V3.30469Z" fill="black"/>
</g>
<defs>
<clipPath id="clip0_36_28">
<rect width="9" height="9" fill="white"/>
</clipPath>
</defs>
</svg>
