<svg width="44" height="44" viewBox="0 0 44 44" fill="none" xmlns="http://www.w3.org/2000/svg">
<path fill-rule="evenodd" clip-rule="evenodd" d="M6.35066 6.35063C3.66666 9.03829 3.66666 13.3576 3.66666 22C3.66666 30.6423 3.66666 34.9635 6.35066 37.6475C9.03832 40.3333 13.3577 40.3333 22 40.3333C30.6423 40.3333 34.9635 40.3333 37.6475 37.6475C40.3333 34.9653 40.3333 30.6423 40.3333 22C40.3333 13.3576 40.3333 9.03646 37.6475 6.35063C34.9653 3.66663 30.6423 3.66663 22 3.66663C13.3577 3.66663 9.03649 3.66663 6.35066 6.35063ZM25.2083 18.3333C25.2083 19.0923 25.8243 19.7083 26.5833 19.7083H27.8483L24.1578 23.3988C24.1152 23.4415 24.0647 23.4753 24.009 23.4984C23.9533 23.5216 23.8936 23.5334 23.8333 23.5334C23.773 23.5334 23.7133 23.5216 23.6577 23.4984C23.602 23.4753 23.5514 23.4415 23.5088 23.3988L20.6012 20.4911C19.9995 19.8899 19.1838 19.5522 18.3333 19.5522C17.4828 19.5522 16.6671 19.8899 16.0655 20.4911L11.8617 24.695C11.7266 24.8208 11.6182 24.9726 11.5431 25.1413C11.4679 25.31 11.4275 25.492 11.4242 25.6767C11.421 25.8613 11.4549 26.0447 11.5241 26.2159C11.5933 26.3871 11.6962 26.5426 11.8268 26.6732C11.9573 26.8038 12.1128 26.9067 12.2841 26.9759C12.4553 27.045 12.6387 27.079 12.8233 27.0757C13.0079 27.0725 13.19 27.032 13.3586 26.9569C13.5273 26.8817 13.6791 26.7734 13.805 26.6383L18.0088 22.4345C18.0514 22.3918 18.102 22.3579 18.1577 22.3348C18.2133 22.3117 18.273 22.2998 18.3333 22.2998C18.3936 22.2998 18.4533 22.3117 18.509 22.3348C18.5647 22.3579 18.6152 22.3918 18.6578 22.4345L21.5655 25.3421C22.1671 25.9433 22.9828 26.281 23.8333 26.281C24.6838 26.281 25.4995 25.9433 26.1012 25.3421L29.7917 21.6535V22.9166C29.7917 23.2813 29.9365 23.631 30.1944 23.8889C30.4522 24.1468 30.802 24.2916 31.1667 24.2916C31.5313 24.2916 31.8811 24.1468 32.1389 23.8889C32.3968 23.631 32.5417 23.2813 32.5417 22.9166V18.3333C32.5417 17.9686 32.3968 17.6189 32.1389 17.361C31.8811 17.1032 31.5313 16.9583 31.1667 16.9583H26.5833C26.2187 16.9583 25.8689 17.1032 25.6111 17.361C25.3532 17.6189 25.2083 17.9686 25.2083 18.3333Z" fill="url(#paint0_linear_37_76)"/>
<defs>
<linearGradient id="paint0_linear_37_76" x1="3.66666" y1="3.66663" x2="46.0914" y2="12.4175" gradientUnits="userSpaceOnUse">
<stop stop-color="#BCDCEA"/>
<stop offset="1" stop-color="#AFB0C8"/>
</linearGradient>
</defs>
</svg>
