<svg width="29" height="29" viewBox="0 0 29 29" fill="none" xmlns="http://www.w3.org/2000/svg">
<g clip-path="url(#clip0_38_149)">
<path fill-rule="evenodd" clip-rule="evenodd" d="M21.6754 0.0539676C21.3684 0.0542377 21.0683 0.145499 20.813 0.316226C20.5578 0.486953 20.3589 0.729488 20.2414 1.0132C20.1239 1.29691 20.0932 1.60907 20.153 1.91025C20.2128 2.21143 20.3606 2.48813 20.5776 2.7054L22.3632 4.49304L18.9391 7.91711C15.2917 4.804 10.6512 3.09799 5.85594 3.10725C4.34638 3.10701 2.84151 3.27514 1.36923 3.60854C0.978948 3.71048 0.643621 3.96023 0.434161 4.30495C0.224701 4.64968 0.157531 5.06236 0.246857 5.45571C0.336183 5.84907 0.575001 6.19226 0.912805 6.41271C1.25061 6.63316 1.66091 6.71358 2.05694 6.63697C2.62313 6.50854 3.19899 6.40911 3.78451 6.33868V21.9904H1.71308C1.40578 21.9904 1.10537 22.0815 0.84985 22.2522C0.59433 22.4229 0.395177 22.6656 0.277583 22.9495V22.9536C0.192688 23.1581 0.153114 23.3786 0.161583 23.5999C0.175581 24.0091 0.350519 24.3962 0.648369 24.677L4.42665 28.4553C4.63975 28.6825 4.91621 28.8404 5.22016 28.9084C5.5241 28.9765 5.84149 28.9517 6.13113 28.8371C6.42078 28.7225 6.66929 28.5236 6.84443 28.266C7.01957 28.0084 7.11325 27.7042 7.1133 27.3927V25.3751H22.8209C22.7521 25.9558 22.6525 26.5325 22.5227 27.1027C22.4775 27.3017 22.472 27.5076 22.5064 27.7087C22.5408 27.9098 22.6145 28.1022 22.7233 28.2748C22.8321 28.4475 22.9738 28.597 23.1404 28.7149C23.3069 28.8327 23.4951 28.9166 23.694 28.9618C23.893 29.0069 24.099 29.0125 24.3001 28.978C24.5012 28.9436 24.6936 28.8699 24.8662 28.7611C25.0388 28.6524 25.1884 28.5106 25.3062 28.3441C25.4241 28.1775 25.508 27.9894 25.5532 27.7904C25.8859 26.318 26.0533 24.8132 26.0524 23.3037C26.0613 18.4565 24.3178 13.7695 21.1431 10.1066L24.5609 6.68875L26.3486 8.4764C26.5658 8.69339 26.8425 8.84114 27.1437 8.90097C27.4449 8.9608 27.7571 8.93004 28.0408 8.81256C28.3245 8.69509 28.567 8.49617 28.7378 8.24094C28.9085 7.98571 28.9997 7.68561 29 7.37854V1.60754C29.0008 1.40329 28.9612 1.2009 28.8834 1.01204C28.8056 0.823183 28.6912 0.651592 28.5468 0.507165C28.4024 0.362739 28.2308 0.248335 28.0419 0.170552C27.8531 0.0927689 27.6507 0.0531457 27.4464 0.0539676H21.6754ZM16.7372 10.1211C13.9522 7.81435 10.5038 6.45659 6.89373 6.24547V19.9645L16.7372 10.1211ZM18.9432 12.3106C21.3077 15.1138 22.7015 18.607 22.9162 22.268H8.9838L18.9432 12.3106Z" fill="url(#paint0_linear_38_149)"/>
</g>
<defs>
<linearGradient id="paint0_linear_38_149" x1="0.160461" y1="0.0539551" x2="33.539" y2="6.91346" gradientUnits="userSpaceOnUse">
<stop stop-color="#BCDCEA"/>
<stop offset="1" stop-color="#AFB0C8"/>
</linearGradient>
<clipPath id="clip0_38_149">
<rect width="29" height="29" fill="white"/>
</clipPath>
</defs>
</svg>
